<svg width="24" height="25" viewBox="0 0 24 25" fill="none" xmlns="http://www.w3.org/2000/svg">
<g clip-path="url(#clip0_2055_28505)">
<path d="M18.3981 10.759C18.6781 9.24875 18.3465 7.68911 17.4765 6.42324C16.6065 5.15737 15.2693 4.28896 13.759 4.00904C12.2487 3.72912 10.6891 4.06063 9.42319 4.93064C8.15732 5.80065 7.28891 7.13789 7.00899 8.64819C5.77766 15.2919 2.57857 16.6623 2.57857 16.6623L19.6623 19.8286C19.6623 19.8286 17.1668 17.4027 18.3981 10.759Z" fill="white" stroke="white" stroke-width="2.10602" stroke-linecap="round" stroke-linejoin="round"/>
<path d="M12.0586 22.3462C11.8384 22.6029 11.5546 22.7973 11.2357 22.9098C10.9168 23.0224 10.5739 23.0492 10.2413 22.9876C9.9088 22.9259 9.59828 22.778 9.34088 22.5586C9.08349 22.3393 8.88824 22.0561 8.77469 21.7375" stroke="white" stroke-width="2.10602" stroke-linecap="round" stroke-linejoin="round"/>
</g>
<defs>
<clipPath id="clip0_2055_28505">
<rect width="23.1662" height="23.1662" fill="white" transform="translate(2.72162) rotate(10.5)"/>
</clipPath>
</defs>
</svg>
