<svg width="20" height="20" viewBox="0 0 20 20" fill="none" xmlns="http://www.w3.org/2000/svg">
<path fill-rule="evenodd" clip-rule="evenodd" d="M10.4961 19.3817L10.4861 19.3834L10.427 19.4125L10.4103 19.4159L10.3986 19.4125L10.3395 19.3825C10.3306 19.3803 10.3239 19.382 10.3195 19.3875L10.3161 19.3959L10.302 19.7525L10.3061 19.7692L10.3145 19.78L10.4011 19.8417L10.4136 19.845L10.4236 19.8417L10.5103 19.78L10.5203 19.7667L10.5236 19.7525L10.5095 19.3967C10.5072 19.3878 10.5028 19.3828 10.4961 19.3817ZM10.7161 19.2875L10.7045 19.2892L10.5511 19.3667L10.5428 19.375L10.5403 19.3842L10.5553 19.7425L10.5595 19.7525L10.5661 19.7592L10.7336 19.8359C10.7442 19.8386 10.7522 19.8364 10.7578 19.8292L10.7611 19.8175L10.7328 19.3059C10.73 19.2953 10.7245 19.2892 10.7161 19.2875ZM10.1203 19.2892C10.1166 19.287 10.1122 19.2862 10.108 19.2872C10.1038 19.2881 10.1002 19.2906 10.0978 19.2942L10.0928 19.3059L10.0645 19.8175C10.065 19.8275 10.0697 19.8342 10.0786 19.8375L10.0911 19.8359L10.2586 19.7584L10.267 19.7517L10.2695 19.7425L10.2845 19.3842L10.282 19.3742L10.2736 19.3659L10.1203 19.2892Z" fill="#0E8C7D"/>
<path fill-rule="evenodd" clip-rule="evenodd" d="M13.137 3.33333C13.6012 3.33334 14.0562 3.46261 14.4511 3.70664C14.846 3.95066 15.1652 4.29982 15.3728 4.715L16.5278 7.02416C16.7312 6.94083 16.9312 6.85083 17.1278 6.75416C17.3256 6.65537 17.5546 6.6392 17.7643 6.70921C17.974 6.77923 18.1474 6.92969 18.2462 7.1275C18.345 7.3253 18.3611 7.55425 18.2911 7.76398C18.2211 7.97371 18.0706 8.14704 17.8728 8.24583C17.6725 8.33498 17.4711 8.42165 17.2687 8.50583L18.0695 10.1083C18.2433 10.4558 18.3338 10.839 18.3337 11.2275V13.3333C18.3337 13.6851 18.2594 14.0328 18.1158 14.3539C17.9722 14.675 17.7625 14.9622 17.5003 15.1967V16.25C17.5003 16.5815 17.3686 16.8995 17.1342 17.1339C16.8998 17.3683 16.5818 17.5 16.2503 17.5C15.9188 17.5 15.6009 17.3683 15.3664 17.1339C15.132 16.8995 15.0003 16.5815 15.0003 16.25V15.8333H5.00033V16.25C5.00033 16.5815 4.86863 16.8995 4.63421 17.1339C4.39979 17.3683 4.08185 17.5 3.75033 17.5C3.41881 17.5 3.10086 17.3683 2.86644 17.1339C2.63202 16.8995 2.50033 16.5815 2.50033 16.25V15.1967C1.98866 14.7383 1.66699 14.0733 1.66699 13.3333V11.2267C1.66715 10.8387 1.75759 10.4561 1.93116 10.1092L2.72533 8.51916C2.52421 8.43472 2.3256 8.34388 2.12949 8.24666C1.93269 8.14658 1.78308 7.97318 1.71294 7.76383C1.64279 7.55448 1.65771 7.32595 1.75449 7.1275C1.80337 7.02952 1.87109 6.94214 1.95376 6.87034C2.03643 6.79855 2.13243 6.74375 2.23629 6.70908C2.34015 6.67441 2.44983 6.66054 2.55905 6.66828C2.66827 6.67601 2.77489 6.7052 2.87283 6.75416C3.07005 6.85138 3.27005 6.94138 3.47283 7.02416L4.62783 4.71583C4.83537 4.3005 5.15447 3.95117 5.54937 3.70699C5.94427 3.46281 6.39936 3.33342 6.86366 3.33333H13.137ZM6.25033 10.8333C5.91881 10.8333 5.60086 10.965 5.36644 11.1994C5.13202 11.4339 5.00033 11.7518 5.00033 12.0833C5.00033 12.4149 5.13202 12.7328 5.36644 12.9672C5.60086 13.2016 5.91881 13.3333 6.25033 13.3333C6.58185 13.3333 6.89979 13.2016 7.13421 12.9672C7.36863 12.7328 7.50033 12.4149 7.50033 12.0833C7.50033 11.7518 7.36863 11.4339 7.13421 11.1994C6.89979 10.965 6.58185 10.8333 6.25033 10.8333ZM13.7503 10.8333C13.4188 10.8333 13.1009 10.965 12.8664 11.1994C12.632 11.4339 12.5003 11.7518 12.5003 12.0833C12.5003 12.4149 12.632 12.7328 12.8664 12.9672C13.1009 13.2016 13.4188 13.3333 13.7503 13.3333C14.0818 13.3333 14.3998 13.2016 14.6342 12.9672C14.8686 12.7328 15.0003 12.4149 15.0003 12.0833C15.0003 11.7518 14.8686 11.4339 14.6342 11.1994C14.3998 10.965 14.0818 10.8333 13.7503 10.8333ZM13.137 5H6.86366C6.7265 4.99997 6.59145 5.03381 6.47051 5.0985C6.34956 5.16319 6.24645 5.25673 6.17033 5.37083L6.11866 5.46083L5.06033 7.57583C6.35033 7.9625 8.08866 8.33333 10.0003 8.33333C11.7853 8.33333 13.4178 8.01 14.6753 7.6525L14.9395 7.57583L13.882 5.46083C13.8207 5.33817 13.73 5.23255 13.6181 5.15333C13.5061 5.0741 13.3764 5.02372 13.2403 5.00666L13.1378 5H13.137Z" fill="#0E8C7D"/>
</svg>
