<svg width="24" height="25" viewBox="0 0 24 25" fill="none" xmlns="http://www.w3.org/2000/svg">
<path d="M11.7383 0.674316C5.27377 0.674316 0.0483398 5.89975 0.0483398 12.3643C0.0483398 18.8289 5.27377 24.0543 11.7383 24.0543C18.2029 24.0543 23.4283 18.8289 23.4283 12.3643C23.4283 5.89975 18.2029 0.674316 11.7383 0.674316ZM16.765 17.391C16.6569 17.4994 16.5284 17.5854 16.387 17.644C16.2456 17.7027 16.094 17.7329 15.9409 17.7329C15.7878 17.7329 15.6362 17.7027 15.4948 17.644C15.3534 17.5854 15.2249 17.4994 15.1167 17.391L11.7383 14.0126L8.35993 17.391C8.14135 17.6096 7.8449 17.7324 7.53578 17.7324C7.22667 17.7324 6.93022 17.6096 6.71164 17.391C6.49306 17.1724 6.37027 16.876 6.37027 16.5669C6.37027 16.4138 6.40041 16.2623 6.45899 16.1208C6.51756 15.9794 6.60341 15.851 6.71164 15.7427L10.09 12.3643L6.71164 8.98591C6.49306 8.76733 6.37027 8.47087 6.37027 8.16176C6.37027 7.85265 6.49306 7.55619 6.71164 7.33762C6.93022 7.11904 7.22667 6.99624 7.53578 6.99624C7.8449 6.99624 8.14135 7.11904 8.35993 7.33762L11.7383 10.716L15.1167 7.33762C15.225 7.22939 15.3535 7.14354 15.4949 7.08496C15.6363 7.02639 15.7878 6.99624 15.9409 6.99624C16.094 6.99624 16.2455 7.02639 16.3869 7.08496C16.5283 7.14354 16.6568 7.22939 16.765 7.33762C16.8733 7.44584 16.9591 7.57433 17.0177 7.71574C17.0763 7.85714 17.1064 8.0087 17.1064 8.16176C17.1064 8.31482 17.0763 8.46638 17.0177 8.60778C16.9591 8.74919 16.8733 8.87768 16.765 8.98591L13.3866 12.3643L16.765 15.7427C17.2093 16.1869 17.2093 16.9351 16.765 17.391Z" fill="white"/>
</svg>
