<svg width="18" height="55" viewBox="0 0 18 55" fill="none" xmlns="http://www.w3.org/2000/svg">
<line x1="9.26104" y1="10.8998" x2="9.26104" y2="38.3309" stroke="#B1FFDA" stroke-width="0.669052" stroke-linecap="round" stroke-dasharray="2.35 2.35"/>
<path d="M16.3743 41.8892C15.4458 37.8209 11.8818 35.9893 8.7511 35.9893C8.7511 35.9893 8.7511 35.9893 8.74226 35.9893C5.62045 35.9893 2.04761 37.8121 1.11902 41.8804C0.0843129 46.4242 2.87891 50.2724 5.4082 52.694C6.34563 53.5922 7.54837 54.0413 8.7511 54.0413C9.95384 54.0413 11.1566 53.5922 12.0852 52.694C14.6145 50.2724 17.4091 46.4331 16.3743 41.8892ZM8.7511 46.301C7.21231 46.301 5.96535 45.0593 5.96535 43.5271C5.96535 41.9949 7.21231 40.7532 8.7511 40.7532C10.2899 40.7532 11.5369 41.9949 11.5369 43.5271C11.5369 45.0593 10.2899 46.301 8.7511 46.301Z" fill="#C02120"/>
<circle cx="8.86261" cy="9.1631" r="7.4563" fill="white" stroke="#00665A" stroke-width="2.35462"/>
</svg>
