<svg width="21" height="75" viewBox="0 0 21 75" fill="none" xmlns="http://www.w3.org/2000/svg">
<line x1="10.4032" y1="20.4032" x2="10.4032" y2="52.5968" stroke="#B1FFDA" stroke-width="0.80636" stroke-linecap="round" stroke-dasharray="2.84 2.84"/>
<path d="M19.6526 59.7973C18.5334 54.894 14.238 52.6865 10.4648 52.6865C10.4648 52.6865 10.4648 52.6865 10.4542 52.6865C6.69169 52.6865 2.3856 54.8834 1.26644 59.7866C0.0193828 65.263 3.38751 69.9009 6.43588 72.8196C7.56569 73.9021 9.01527 74.4434 10.4648 74.4434C11.9144 74.4434 13.364 73.9021 14.4831 72.8196C17.5315 69.9009 20.8996 65.2736 19.6526 59.7973ZM10.4648 65.1144C8.61024 65.1144 7.10737 63.618 7.10737 61.7713C7.10737 59.9246 8.61024 58.4282 10.4648 58.4282C12.3194 58.4282 13.8223 59.9246 13.8223 61.7713C13.8223 63.618 12.3194 65.1144 10.4648 65.1144Z" fill="#FF7271"/>
<circle cx="10.4055" cy="10.9386" r="8.98654" stroke="#A3FFF4" stroke-width="2.83785"/>
</svg>
