<svg width="21" height="74" viewBox="0 0 21 74" fill="none" xmlns="http://www.w3.org/2000/svg">
<line x1="10.8856" y1="12.4985" x2="10.8856" y2="45.5593" stroke="#B1FFDA" stroke-width="0.80636" stroke-linecap="round" stroke-dasharray="2.84 2.84"/>
<line x1="10.8856" y1="41.5276" x2="10.8856" y2="72.1693" stroke="#B1FFDA" stroke-width="0.80636" stroke-linecap="round" stroke-dasharray="2.84 2.84"/>
<path d="M19.4592 59.2408C18.3401 54.3375 14.0446 52.13 10.2715 52.13C10.2715 52.13 10.2715 52.13 10.2608 52.13C6.49833 52.13 2.19224 54.3269 1.07308 59.2302C-0.173977 64.7065 3.19415 69.3445 6.24252 72.2631C7.37233 73.3456 8.82191 73.8869 10.2715 73.8869C11.7211 73.8869 13.1706 73.3456 14.2898 72.2631C17.3382 69.3445 20.7063 64.7172 19.4592 59.2408ZM10.2715 64.558C8.41688 64.558 6.91401 63.0615 6.91401 61.2148C6.91401 59.3681 8.41688 57.8717 10.2715 57.8717C12.1261 57.8717 13.6289 59.3681 13.6289 61.2148C13.6289 63.0615 12.1261 64.558 10.2715 64.558Z" fill="#C02120"/>
<circle cx="10.4055" cy="10.4055" r="8.98654" fill="white" stroke="#00665A" stroke-width="2.83785"/>
</svg>
