<svg width="32" height="23" viewBox="0 0 32 23" fill="none" xmlns="http://www.w3.org/2000/svg">
<path d="M23.625 1.575C23.625 0.705182 22.9198 0 22.05 0H1.575C0.705181 0 0 0.705182 0 1.575C0 2.44482 0.705181 3.15 1.575 3.15H22.05C22.9198 3.15 23.625 2.44476 23.625 1.575ZM1.575 9.45H29.925C30.7948 9.45 31.5 10.1552 31.5 11.025C31.5 11.8948 30.7948 12.6 29.925 12.6H1.575C0.705181 12.6 0 11.8948 0 11.025C0 10.1552 0.705181 9.45 1.575 9.45ZM1.575 18.9H15.75C16.6198 18.9 17.325 19.6052 17.325 20.475C17.325 21.3448 16.6198 22.05 15.75 22.05H1.575C0.705181 22.05 0 21.3448 0 20.475C0 19.6052 0.705181 18.9 1.575 18.9Z" fill="white"/>
</svg>
