<svg width="20" height="20" viewBox="0 0 20 20" fill="none" xmlns="http://www.w3.org/2000/svg">
<path d="M5.83366 11.6667V16.6667C5.83366 16.9028 5.75366 17.1008 5.59366 17.2608C5.43366 17.4208 5.23588 17.5006 5.00033 17.5C4.76477 17.4995 4.56699 17.4195 4.40699 17.26C4.24699 17.1006 4.16699 16.9028 4.16699 16.6667V4.16668C4.16699 3.93057 4.24699 3.73279 4.40699 3.57334C4.56699 3.4139 4.76477 3.3339 5.00033 3.33334H10.9795C11.1739 3.33334 11.3475 3.39584 11.5003 3.52084C11.6531 3.64584 11.7503 3.80557 11.792 4.00001L12.0003 5.00001H15.8337C16.0698 5.00001 16.2678 5.08001 16.4278 5.24001C16.5878 5.40001 16.6675 5.59779 16.667 5.83334V12.5C16.667 12.7361 16.587 12.9342 16.427 13.0942C16.267 13.2542 16.0692 13.3339 15.8337 13.3333H11.5212C11.3267 13.3333 11.1531 13.2708 11.0003 13.1458C10.8475 13.0208 10.7503 12.8611 10.7087 12.6667L10.5003 11.6667H5.83366Z" fill="#FF4848"/>
</svg>
