<svg width="22" height="22" viewBox="0 0 22 22" fill="none" xmlns="http://www.w3.org/2000/svg">
<path fill-rule="evenodd" clip-rule="evenodd" d="M11.55 10.5446L15.1168 14.1113L14.3394 14.8896L10.45 11.0002V5.50016H11.55V10.5446ZM11 20.1668C5.93726 20.1668 1.83334 16.0629 1.83334 11.0002C1.83334 5.93741 5.93726 1.8335 11 1.8335C16.0628 1.8335 20.1667 5.93741 20.1667 11.0002C20.1667 16.0629 16.0628 20.1668 11 20.1668ZM11 19.0668C13.1394 19.0668 15.1912 18.217 16.704 16.7042C18.2168 15.1914 19.0667 13.1396 19.0667 11.0002C19.0667 8.86075 18.2168 6.80896 16.704 5.29617C15.1912 3.78337 13.1394 2.9335 11 2.9335C8.8606 2.9335 6.80881 3.78337 5.29602 5.29617C3.78322 6.80896 2.93334 8.86075 2.93334 11.0002C2.93334 13.1396 3.78322 15.1914 5.29602 16.7042C6.80881 18.217 8.8606 19.0668 11 19.0668Z" fill="#FF9292"/>
</svg>
