<svg width="22" height="22" viewBox="0 0 22 22" fill="none" xmlns="http://www.w3.org/2000/svg">
<path d="M9.27208 19.9934C9.82758 20.4518 10.4069 20.8707 11 21.2795C11.5944 20.8761 12.1709 20.447 12.7279 19.9934C13.6565 19.231 14.5304 18.4042 15.3432 17.5193C17.2168 15.4706 19.25 12.5006 19.25 9.16667C19.25 8.08327 19.0366 7.01047 18.622 6.00953C18.2074 5.0086 17.5997 4.09912 16.8336 3.33304C16.0675 2.56696 15.1581 1.95927 14.1571 1.54467C13.1562 1.13006 12.0834 0.916672 11 0.916672C9.91659 0.916672 8.8438 1.13006 7.84286 1.54467C6.84193 1.95927 5.93245 2.56696 5.16637 3.33304C4.40029 4.09912 3.7926 5.0086 3.37799 6.00953C2.96339 7.01047 2.75 8.08327 2.75 9.16667C2.75 12.5006 4.78317 15.4697 6.65683 17.5193C7.46957 18.4045 8.34347 19.2307 9.27208 19.9934ZM11 12.1458C10.2099 12.1458 9.45211 11.832 8.89341 11.2733C8.33471 10.7146 8.02083 9.95679 8.02083 9.16667C8.02083 8.37655 8.33471 7.61878 8.89341 7.06008C9.45211 6.50138 10.2099 6.1875 11 6.1875C11.7901 6.1875 12.5479 6.50138 13.1066 7.06008C13.6653 7.61878 13.9792 8.37655 13.9792 9.16667C13.9792 9.95679 13.6653 10.7146 13.1066 11.2733C12.5479 11.832 11.7901 12.1458 11 12.1458Z" fill="#263238"/>
</svg>
