<svg width="19" height="23" viewBox="0 0 19 23" fill="none" xmlns="http://www.w3.org/2000/svg">
<path d="M18.7324 7.20685C17.6085 2.2488 13.2947 0.0166016 9.50535 0.0166016C9.50535 0.0166016 9.50535 0.0166016 9.49465 0.0166016C5.71605 0.0166016 1.39153 2.23806 0.267583 7.19611C-0.984814 12.7337 2.39773 17.4234 5.45914 20.3747C6.5938 21.4693 8.04957 22.0166 9.50535 22.0166C10.9611 22.0166 12.4169 21.4693 13.5409 20.3747C16.6023 17.4234 19.9848 12.7444 18.7324 7.20685ZM9.50535 12.5834C7.64281 12.5834 6.13351 11.0703 6.13351 9.20294C6.13351 7.33563 7.64281 5.82246 9.50535 5.82246C11.3679 5.82246 12.8772 7.33563 12.8772 9.20294C12.8772 11.0703 11.3679 12.5834 9.50535 12.5834Z" fill="#F26060"/>
</svg>
