<svg width="50" height="16" viewBox="0 0 50 16" fill="none" xmlns="http://www.w3.org/2000/svg">
<path d="M21.1505 9.22607H0V15.9875H21.1505V9.22607Z" fill="#84B740"/>
<path d="M21.1505 0H0V6.76749H21.1505V0Z" fill="#259BD6"/>
<path d="M42.3007 14.6133L42.2065 14.6314C41.88 14.6917 41.7606 14.7158 41.522 14.7158C40.9694 14.7158 40.3163 14.4446 40.3163 13.167C40.3163 12.5102 40.4293 11.6364 41.4592 11.6364H41.4655C41.6413 11.6484 41.8423 11.6665 42.2191 11.775L42.3007 11.7991V14.6133ZM42.4703 8.2436L42.3007 8.27373V10.636L42.15 10.5938L42.106 10.5818C41.9365 10.5336 41.5471 10.4251 41.1703 10.4251C39.1106 10.4251 38.6772 11.9196 38.6772 13.1731C38.6772 14.8906 39.682 15.8789 41.4341 15.8789C42.1751 15.8789 42.7215 15.8066 43.2741 15.6318C43.7827 15.4751 43.9649 15.2521 43.9649 14.7761V7.99652C43.475 8.08089 42.9664 8.16526 42.4703 8.2436Z" fill="#04060B"/>
<path d="M48.4236 14.6561L48.3357 14.6802L48.0217 14.7586C47.7265 14.8309 47.4628 14.8731 47.2618 14.8731C46.7783 14.8731 46.4894 14.6441 46.4894 14.2524C46.4894 13.9993 46.6087 13.5714 47.4 13.5714H48.4236V14.6561ZM47.7014 10.3956C47.0671 10.3956 46.414 10.504 45.6039 10.7451L45.0764 10.8957L45.2523 12.0407L45.7672 11.878C46.3073 11.7093 46.9792 11.6008 47.4816 11.6008C47.7077 11.6008 48.3985 11.6008 48.3985 12.3179V12.6313H47.4377C45.6856 12.6313 44.8755 13.1676 44.8755 14.3187C44.8755 15.3009 45.6228 15.8915 46.8788 15.8915C47.2681 15.8915 47.8082 15.8192 48.2729 15.7107L48.298 15.7047L48.3231 15.7107L48.4801 15.7348C48.9699 15.8192 49.4786 15.9036 49.9747 15.994V12.2336C49.9747 11.0163 49.2086 10.3956 47.7014 10.3956Z" fill="#04060B"/>
<path d="M36.2219 14.6561L36.134 14.6802L35.82 14.7586C35.5249 14.8309 35.2674 14.8731 35.0602 14.8731C34.5766 14.8731 34.2877 14.6441 34.2877 14.2524C34.2877 13.9993 34.4071 13.5714 35.192 13.5714H36.2156V14.6561H36.2219ZM35.506 10.3956C34.8655 10.3956 34.2187 10.504 33.4086 10.7451L32.8811 10.8957L33.0569 12.0407L33.5718 11.878C34.1119 11.7093 34.7838 11.6008 35.2862 11.6008C35.5123 11.6008 36.2031 11.6008 36.2031 12.3179V12.6313H35.2423C33.4902 12.6313 32.6738 13.1676 32.6738 14.3187C32.6738 15.3009 33.4211 15.8915 34.6834 15.8915C35.0727 15.8915 35.6128 15.8192 36.0775 15.7107L36.1026 15.7047L36.1277 15.7107L36.2784 15.7348C36.7746 15.8192 37.2769 15.9036 37.773 16V12.2396C37.7793 11.0102 37.0132 10.3956 35.506 10.3956Z" fill="#04060B"/>
<path d="M29.6092 10.4072C28.8117 10.4072 28.1523 10.6603 27.9074 10.7688L27.8446 10.7989L27.7881 10.7567C27.449 10.5217 26.9529 10.4012 26.2621 10.4012C25.6529 10.4012 25.0815 10.4856 24.4598 10.6603C23.926 10.817 23.7188 11.0641 23.7188 11.5281V15.8248H25.3892V11.8535L25.4708 11.8294C25.8099 11.7209 26.0109 11.7029 26.2056 11.7029C26.6891 11.7029 26.934 11.9499 26.934 12.432V15.8308H28.5793V12.3657C28.5793 12.1608 28.5354 12.0403 28.5291 12.0162L28.4726 11.9138L28.5856 11.8656C28.8368 11.7571 29.1131 11.7029 29.402 11.7029C29.7348 11.7029 30.1305 11.8294 30.1305 12.432V15.8308H31.7695V12.2753C31.7695 11.0159 31.0661 10.4072 29.6092 10.4072Z" fill="#04060B"/>
<path d="M47.1929 4.41122C46.948 4.41122 46.5398 4.38712 46.2195 4.32685L46.1253 4.30877V1.98866C46.1253 1.79582 46.0876 1.6753 46.0814 1.65722L46.0311 1.5608L46.1379 1.51862C46.163 1.50656 46.1881 1.50054 46.2195 1.48849L46.2383 1.47643C46.276 1.46438 46.3137 1.45233 46.3514 1.44028C46.3702 1.43425 46.3828 1.42822 46.3953 1.42822C46.7659 1.3318 47.105 1.34386 47.2557 1.3318H47.262C48.2856 1.3318 48.4049 2.20561 48.4049 2.86247C48.3986 4.14004 47.7392 4.41122 47.1929 4.41122ZM47.1866 0C47.174 0 47.1552 0 47.1426 0C46.1818 0 45.1959 0.253104 44.8442 0.747257C44.6558 0.988308 44.5491 1.28962 44.5428 1.64517V4.03759C44.5428 4.24248 44.4988 4.32083 44.4926 4.3389L44.436 4.44135H41.4029V2.7781H41.3966C41.3589 1.02446 40.2788 0.0602626 38.7151 0.0602626H38.533H37.1891C37.1263 0.488127 37.0761 0.78944 37.0133 1.2173H38.533C39.3305 1.2173 39.7513 1.86814 39.7513 2.8685V4.5438L39.6445 4.48956C39.6257 4.48353 39.4938 4.44135 39.2866 4.44135H36.6616C36.6114 4.76074 36.5486 5.17656 36.4795 5.59237H44.5491C44.8254 5.53813 45.1457 5.48992 45.422 5.44774C45.8302 5.64058 46.59 5.74302 47.1112 5.74302C48.8633 5.74302 50 4.61611 50 2.88055C49.9937 1.16307 48.8947 0.0361575 47.1866 0Z" fill="#04060B"/>
<path d="M33.038 6.29768H33.1134C34.8654 6.29768 35.6818 5.74326 35.6818 4.3753C35.6818 3.39302 34.9345 2.60961 33.6786 2.60961H32.0646C31.5811 2.60961 31.2922 2.34445 31.2922 1.89851C31.2922 1.5972 31.4115 1.22357 32.2028 1.22357H35.7321C35.8074 0.783654 35.8451 0.506445 35.9142 0.0665283H32.2468C30.5386 0.0665283 29.6783 0.753521 29.6783 1.89851C29.6783 3.03145 30.4256 3.62202 31.6816 3.62202H33.2955C33.779 3.62202 34.0679 3.98962 34.0679 4.3753C34.0679 4.6284 33.9486 5.15269 33.1636 5.15269H32.8936L27.7253 5.14064H26.7833C25.9858 5.14064 25.4269 4.70675 25.4269 3.70036V3.00734C25.4269 1.95877 25.8602 1.30794 26.7833 1.30794H28.3156C28.3847 0.861995 28.4286 0.57876 28.4914 0.156922H26.5824H26.4002C24.8366 0.156922 23.7564 1.16331 23.7188 2.91695V2.98324V3.70036C23.7564 5.454 24.8366 6.29165 26.4002 6.29165H26.5824H27.9262L30.727 6.29768H32.3975H33.038Z" fill="#04060B"/>
</svg>
