<svg width="32" height="19" viewBox="0 0 32 19" fill="none" xmlns="http://www.w3.org/2000/svg">
<path d="M21.8604 0C27.1158 0 31.376 4.16249 31.376 9.29688C31.3758 14.4312 27.1157 18.5938 21.8604 18.5938C19.5042 18.5937 17.3494 17.7549 15.6875 16.3691C14.0257 17.7546 11.8715 18.5938 9.51562 18.5938C4.26036 18.5937 0.000133998 14.4311 0 9.29688C0 4.16252 4.26028 6.14328e-05 9.51562 0C11.8714 0 14.0257 0.838288 15.6875 2.22363C17.3493 0.837956 19.5043 3.07018e-05 21.8604 0Z" fill="#ED0006"/>
<path d="M21.8521 0C27.0896 1.54102e-05 31.3354 4.1625 31.3354 9.29688C31.3353 14.4311 27.0895 18.5937 21.8521 18.5938C19.5043 18.5938 17.3578 17.7545 15.7017 16.3691C17.7398 14.664 19.0336 12.1294 19.0337 9.29688C19.0337 6.46394 17.7402 3.92782 15.7017 2.22266C17.3577 0.837684 19.5046 0 21.8521 0Z" fill="#F9A000"/>
<path d="M15.6909 2.2243C17.7361 3.92945 19.0346 6.46391 19.0347 9.29657C19.0347 12.1292 17.7361 14.6637 15.6909 16.3688C13.6461 14.6637 12.3481 12.1289 12.3481 9.29657C12.3482 6.46422 13.6461 3.92945 15.6909 2.2243Z" fill="#FF5E00"/>
</svg>
