<svg width="374" height="249" viewBox="0 0 374 249" fill="none" xmlns="http://www.w3.org/2000/svg">
<path d="M345.458 181.711C354.066 165.796 355.337 147.612 353.319 130.062C351.528 114.494 348.825 96.6379 341.266 82.5858C322.119 46.9903 273.712 30.2839 234.406 40.9879C218.013 45.452 206.514 55.8014 193.351 65.6494C183.619 72.9301 172.941 80.0396 160.367 81.4952C130.25 84.9812 95.9793 56.5952 67.4206 59.0852C38.862 61.5752 16.5337 86.9732 15.495 108.885C14.4562 130.797 36.2654 153.207 34.188 168.147C32.111 183.087 18.6101 222.927 72.0936 224.421C125.577 225.915 153.617 196.035 174.387 202.509C195.157 208.983 240.85 227.907 279.275 222.927C304.343 219.679 328.85 207.386 342.592 186.503C343.628 184.93 344.581 183.332 345.458 181.711Z" fill="#C02120"/>
<path opacity="0.8" d="M345.458 181.711C354.066 165.796 355.337 147.612 353.319 130.062C351.528 114.494 348.825 96.6379 341.266 82.5858C322.119 46.9903 273.712 30.2839 234.406 40.9879C218.013 45.452 206.514 55.8014 193.351 65.6494C183.619 72.9301 172.941 80.0396 160.367 81.4952C130.25 84.9812 95.9793 56.5952 67.4206 59.0852C38.862 61.5752 16.5337 86.9732 15.495 108.885C14.4562 130.797 36.2654 153.207 34.188 168.147C32.111 183.087 18.6101 222.927 72.0936 224.421C125.577 225.915 153.617 196.035 174.387 202.509C195.157 208.983 240.85 227.907 279.275 222.927C304.343 219.679 328.85 207.386 342.592 186.503C343.628 184.93 344.581 183.332 345.458 181.711Z" fill="white"/>
<path d="M13.8662 232.981H362.522" stroke="#263238" stroke-miterlimit="10" stroke-linecap="round" stroke-linejoin="round"/>
<path d="M150.519 20.2885C150.519 20.2885 148.891 15.9544 145.094 15.1417C141.297 14.329 139.805 16.6317 138.991 18.5276C138.178 20.4235 135.737 18.934 133.702 18.6631C131.668 18.3921 130.583 20.4235 130.176 21.9135C129.769 23.403 127.193 21.2362 124.887 22.5908C122.582 23.9453 122.175 25.7058 121.632 26.1121C121.09 26.5185 119.598 25.8412 118.785 26.9249C117.971 28.0085 117.971 28.0085 117.971 28.0085H160.419C160.419 28.0085 161.776 24.8935 159.198 22.5913C156.621 20.2885 152.146 23.8099 150.519 20.2885Z" stroke="#939393" stroke-miterlimit="10" stroke-linecap="round"/>
<path d="M267.697 24.2964C267.697 24.2964 264.842 16.694 258.181 15.2687C251.52 13.8429 248.903 17.8822 247.475 21.2083C246.048 24.5345 241.766 21.921 238.198 21.4459C234.629 20.9708 232.726 24.5345 232.012 27.1475C231.299 29.761 226.779 25.9598 222.735 28.3352C218.69 30.7112 217.977 33.7993 217.025 34.5124C216.074 35.225 213.457 34.0373 212.03 35.9377C210.603 37.8381 210.603 37.8381 210.603 37.8381H285.064C285.064 37.8381 287.443 32.374 282.923 28.3347C278.402 24.2964 270.552 30.4736 267.697 24.2964Z" stroke="#939393" stroke-miterlimit="10" stroke-linecap="round"/>
<path d="M77.2524 37.1872C77.2524 37.1872 76.1304 34.2002 73.5134 33.6399C70.8959 33.0797 69.8676 34.6668 69.3071 35.9735C68.7461 37.2803 67.0636 36.2534 65.6614 36.0667C64.2591 35.8799 63.5116 37.2803 63.2309 38.3072C62.9506 39.334 61.1744 37.8405 59.5851 38.7738C57.9959 39.7075 57.7156 40.9207 57.3416 41.201C56.9676 41.4809 55.9394 41.0143 55.3784 41.7613C54.8174 42.5083 54.8174 42.5083 54.8174 42.5083H84.0752C84.0752 42.5083 85.0097 40.3614 83.2339 38.7743C81.4586 37.1872 78.3739 39.6144 77.2524 37.1872Z" stroke="#939393" stroke-miterlimit="10" stroke-linecap="round"/>
<path d="M290.212 49.9121C290.212 49.9121 289.09 46.9251 286.473 46.3648C283.855 45.8046 282.828 47.3917 282.267 48.6984C281.706 50.0052 280.023 48.9783 278.621 48.7916C277.219 48.6048 276.472 50.0052 276.191 51.0321C275.911 52.0589 274.134 50.5654 272.546 51.4987C270.956 52.4324 270.676 53.6456 270.302 53.9259C269.928 54.2058 268.9 53.7392 268.339 54.4862C267.778 55.2332 267.778 55.2332 267.778 55.2332H297.036C297.036 55.2332 297.971 53.0863 296.195 51.4992C294.418 49.9121 291.333 52.3393 290.212 49.9121Z" stroke="#939393" stroke-miterlimit="10" stroke-linecap="round"/>
<path d="M36.2305 149.786H50.9785V105.13H63.9708V84.2656H88.5511V125.628H94.8717V45.4061H121.909V80.6053H138.764V50.2243H167.558V118.673H206.886V77.7712H232.576V119.039H248.321V123.798H258.153V91.8845H264.825V123.798H269.39V90.1226H276.764V122.334H285.893V68.1603H302.397V103.666H311.878V50.5903H335.054V157.84" stroke="#939393" stroke-miterlimit="10" stroke-linecap="round"/>
<path d="M57.6498 112.451H54.8408V116.111H57.6498V112.451Z" stroke="#939393" stroke-miterlimit="10" stroke-linecap="round"/>
<path d="M62.2143 112.451H59.4053V116.111H62.2143V112.451Z" stroke="#939393" stroke-miterlimit="10" stroke-linecap="round"/>
<path d="M66.7797 112.451H63.9707V116.111H66.7797V112.451Z" stroke="#939393" stroke-miterlimit="10" stroke-linecap="round"/>
<path d="M71.3441 112.451H68.5352V116.111H71.3441V112.451Z" stroke="#939393" stroke-miterlimit="10" stroke-linecap="round"/>
<path d="M75.9086 112.451H73.0996V116.111H75.9086V112.451Z" stroke="#939393" stroke-miterlimit="10" stroke-linecap="round"/>
<path d="M80.474 112.451H77.665V116.111H80.474V112.451Z" stroke="#939393" stroke-miterlimit="10" stroke-linecap="round"/>
<path d="M101.894 85.3637H99.085V89.024H101.894V85.3637Z" stroke="#939393" stroke-miterlimit="10" stroke-linecap="round"/>
<path d="M106.458 85.3637H103.649V89.024H106.458V85.3637Z" stroke="#939393" stroke-miterlimit="10" stroke-linecap="round"/>
<path d="M111.024 85.3637H108.215V89.024H111.024V85.3637Z" stroke="#939393" stroke-miterlimit="10" stroke-linecap="round"/>
<path d="M115.588 85.3637H112.779V89.024H115.588V85.3637Z" stroke="#939393" stroke-miterlimit="10" stroke-linecap="round"/>
<path d="M101.894 78.7751H99.085V82.4354H101.894V78.7751Z" stroke="#939393" stroke-miterlimit="10" stroke-linecap="round"/>
<path d="M106.458 78.7751H103.649V82.4354H106.458V78.7751Z" stroke="#939393" stroke-miterlimit="10" stroke-linecap="round"/>
<path d="M111.024 78.7751H108.215V82.4354H111.024V78.7751Z" stroke="#939393" stroke-miterlimit="10" stroke-linecap="round"/>
<path d="M115.588 78.7751H112.779V82.4354H115.588V78.7751Z" stroke="#939393" stroke-miterlimit="10" stroke-linecap="round"/>
<path d="M101.894 72.1866H99.085V75.8469H101.894V72.1866Z" stroke="#939393" stroke-miterlimit="10" stroke-linecap="round"/>
<path d="M106.458 72.1866H103.649V75.8469H106.458V72.1866Z" stroke="#939393" stroke-miterlimit="10" stroke-linecap="round"/>
<path d="M111.024 72.1866H108.215V75.8469H111.024V72.1866Z" stroke="#939393" stroke-miterlimit="10" stroke-linecap="round"/>
<path d="M115.588 72.1866H112.779V75.8469H115.588V72.1866Z" stroke="#939393" stroke-miterlimit="10" stroke-linecap="round"/>
<path d="M101.894 65.5981H99.085V69.2583H101.894V65.5981Z" stroke="#939393" stroke-miterlimit="10" stroke-linecap="round"/>
<path d="M106.458 65.5981H103.649V69.2583H106.458V65.5981Z" stroke="#939393" stroke-miterlimit="10" stroke-linecap="round"/>
<path d="M111.024 65.5981H108.215V69.2583H111.024V65.5981Z" stroke="#939393" stroke-miterlimit="10" stroke-linecap="round"/>
<path d="M115.588 65.5981H112.779V69.2583H115.588V65.5981Z" stroke="#939393" stroke-miterlimit="10" stroke-linecap="round"/>
<path d="M101.894 59.0095H99.085V62.6698H101.894V59.0095Z" stroke="#939393" stroke-miterlimit="10" stroke-linecap="round"/>
<path d="M106.458 59.0095H103.649V62.6698H106.458V59.0095Z" stroke="#939393" stroke-miterlimit="10" stroke-linecap="round"/>
<path d="M111.024 59.0095H108.215V62.6698H111.024V59.0095Z" stroke="#939393" stroke-miterlimit="10" stroke-linecap="round"/>
<path d="M115.588 59.0095H112.779V62.6698H115.588V59.0095Z" stroke="#939393" stroke-miterlimit="10" stroke-linecap="round"/>
<path d="M120.153 85.3637H117.344V89.024H120.153V85.3637Z" stroke="#939393" stroke-miterlimit="10" stroke-linecap="round"/>
<path d="M124.718 85.3637H121.909V89.024H124.718V85.3637Z" stroke="#939393" stroke-miterlimit="10" stroke-linecap="round"/>
<path d="M101.894 92.6848H99.085V96.3451H101.894V92.6848Z" stroke="#939393" stroke-miterlimit="10" stroke-linecap="round"/>
<path d="M106.458 92.6848H103.649V96.3451H106.458V92.6848Z" stroke="#939393" stroke-miterlimit="10" stroke-linecap="round"/>
<path d="M111.024 92.6848H108.215V96.3451H111.024V92.6848Z" stroke="#939393" stroke-miterlimit="10" stroke-linecap="round"/>
<path d="M115.588 92.6848H112.779V96.3451H115.588V92.6848Z" stroke="#939393" stroke-miterlimit="10" stroke-linecap="round"/>
<path d="M120.153 92.6848H117.344V96.3451H120.153V92.6848Z" stroke="#939393" stroke-miterlimit="10" stroke-linecap="round"/>
<path d="M124.718 92.6848H121.909V96.3451H124.718V92.6848Z" stroke="#939393" stroke-miterlimit="10" stroke-linecap="round"/>
<path d="M57.6498 120.138H54.8408V123.798H57.6498V120.138Z" stroke="#939393" stroke-miterlimit="10" stroke-linecap="round"/>
<path d="M62.2143 120.138H59.4053V123.798H62.2143V120.138Z" stroke="#939393" stroke-miterlimit="10" stroke-linecap="round"/>
<path d="M66.7797 120.138H63.9707V123.798H66.7797V120.138Z" stroke="#939393" stroke-miterlimit="10" stroke-linecap="round"/>
<path d="M71.3441 120.138H68.5352V123.798H71.3441V120.138Z" stroke="#939393" stroke-miterlimit="10" stroke-linecap="round"/>
<path d="M75.9086 120.138H73.0996V123.798H75.9086V120.138Z" stroke="#939393" stroke-miterlimit="10" stroke-linecap="round"/>
<path d="M80.474 120.138H77.665V123.798H80.474V120.138Z" stroke="#939393" stroke-miterlimit="10" stroke-linecap="round"/>
<path d="M57.6498 127.824H54.8408V131.484H57.6498V127.824Z" stroke="#939393" stroke-miterlimit="10" stroke-linecap="round"/>
<path d="M62.2143 127.824H59.4053V131.484H62.2143V127.824Z" stroke="#939393" stroke-miterlimit="10" stroke-linecap="round"/>
<path d="M66.7797 127.824H63.9707V131.484H66.7797V127.824Z" stroke="#939393" stroke-miterlimit="10" stroke-linecap="round"/>
<path d="M71.3441 127.824H68.5352V131.484H71.3441V127.824Z" stroke="#939393" stroke-miterlimit="10" stroke-linecap="round"/>
<path d="M75.9086 127.824H73.0996V131.484H75.9086V127.824Z" stroke="#939393" stroke-miterlimit="10" stroke-linecap="round"/>
<path d="M80.474 127.824H77.665V131.484H80.474V127.824Z" stroke="#939393" stroke-miterlimit="10" stroke-linecap="round"/>
<path d="M57.6498 135.511H54.8408V139.172H57.6498V135.511Z" stroke="#939393" stroke-miterlimit="10" stroke-linecap="round"/>
<path d="M62.2143 135.511H59.4053V139.172H62.2143V135.511Z" stroke="#939393" stroke-miterlimit="10" stroke-linecap="round"/>
<path d="M66.7797 135.511H63.9707V139.172H66.7797V135.511Z" stroke="#939393" stroke-miterlimit="10" stroke-linecap="round"/>
<path d="M71.3441 135.511H68.5352V139.172H71.3441V135.511Z" stroke="#939393" stroke-miterlimit="10" stroke-linecap="round"/>
<path d="M75.9086 135.511H73.0996V139.172H75.9086V135.511Z" stroke="#939393" stroke-miterlimit="10" stroke-linecap="round"/>
<path d="M80.474 135.511H77.665V139.172H80.474V135.511Z" stroke="#939393" stroke-miterlimit="10" stroke-linecap="round"/>
<path d="M57.6498 143.198H54.8408V146.858H57.6498V143.198Z" stroke="#939393" stroke-miterlimit="10" stroke-linecap="round"/>
<path d="M62.2143 143.198H59.4053V146.858H62.2143V143.198Z" stroke="#939393" stroke-miterlimit="10" stroke-linecap="round"/>
<path d="M66.7797 143.198H63.9707V146.858H66.7797V143.198Z" stroke="#939393" stroke-miterlimit="10" stroke-linecap="round"/>
<path d="M71.3441 143.198H68.5352V146.858H71.3441V143.198Z" stroke="#939393" stroke-miterlimit="10" stroke-linecap="round"/>
<path d="M75.9086 143.198H73.0996V146.858H75.9086V143.198Z" stroke="#939393" stroke-miterlimit="10" stroke-linecap="round"/>
<path d="M80.474 143.198H77.665V146.858H80.474V143.198Z" stroke="#939393" stroke-miterlimit="10" stroke-linecap="round"/>
<path d="M323.466 58.277H320.657V61.9373H323.466V58.277Z" stroke="#939393" stroke-miterlimit="10" stroke-linecap="round"/>
<path d="M328.031 58.277H325.222V61.9373H328.031V58.277Z" stroke="#939393" stroke-miterlimit="10" stroke-linecap="round"/>
<path d="M332.595 58.277H329.786V61.9373H332.595V58.277Z" stroke="#939393" stroke-miterlimit="10" stroke-linecap="round"/>
<path d="M323.466 67.4282H320.657V71.0885H323.466V67.4282Z" stroke="#939393" stroke-miterlimit="10" stroke-linecap="round"/>
<path d="M328.031 67.4282H325.222V71.0885H328.031V67.4282Z" stroke="#939393" stroke-miterlimit="10" stroke-linecap="round"/>
<path d="M332.595 67.4282H329.786V71.0885H332.595V67.4282Z" stroke="#939393" stroke-miterlimit="10" stroke-linecap="round"/>
<path d="M323.466 76.5789H320.657V80.2393H323.466V76.5789Z" stroke="#939393" stroke-miterlimit="10" stroke-linecap="round"/>
<path d="M328.031 76.5789H325.222V80.2393H328.031V76.5789Z" stroke="#939393" stroke-miterlimit="10" stroke-linecap="round"/>
<path d="M332.595 76.5789H329.786V80.2393H332.595V76.5789Z" stroke="#939393" stroke-miterlimit="10" stroke-linecap="round"/>
<path d="M323.466 85.7297H320.657V89.39H323.466V85.7297Z" stroke="#939393" stroke-miterlimit="10" stroke-linecap="round"/>
<path d="M328.031 85.7297H325.222V89.39H328.031V85.7297Z" stroke="#939393" stroke-miterlimit="10" stroke-linecap="round"/>
<path d="M332.595 85.7297H329.786V89.39H332.595V85.7297Z" stroke="#939393" stroke-miterlimit="10" stroke-linecap="round"/>
<path d="M323.466 94.881H320.657V98.5412H323.466V94.881Z" stroke="#939393" stroke-miterlimit="10" stroke-linecap="round"/>
<path d="M328.031 94.881H325.222V98.5412H328.031V94.881Z" stroke="#939393" stroke-miterlimit="10" stroke-linecap="round"/>
<path d="M332.595 94.881H329.786V98.5412H332.595V94.881Z" stroke="#939393" stroke-miterlimit="10" stroke-linecap="round"/>
<path d="M323.466 104.032H320.657V107.692H323.466V104.032Z" stroke="#939393" stroke-miterlimit="10" stroke-linecap="round"/>
<path d="M328.031 104.032H325.222V107.692H328.031V104.032Z" stroke="#939393" stroke-miterlimit="10" stroke-linecap="round"/>
<path d="M332.595 104.032H329.786V107.692H332.595V104.032Z" stroke="#939393" stroke-miterlimit="10" stroke-linecap="round"/>
<path d="M323.466 113.183H320.657V116.843H323.466V113.183Z" stroke="#939393" stroke-miterlimit="10" stroke-linecap="round"/>
<path d="M328.031 113.183H325.222V116.843H328.031V113.183Z" stroke="#939393" stroke-miterlimit="10" stroke-linecap="round"/>
<path d="M332.595 113.183H329.786V116.843H332.595V113.183Z" stroke="#939393" stroke-miterlimit="10" stroke-linecap="round"/>
<path d="M323.466 122.334H320.657V125.994H323.466V122.334Z" stroke="#939393" stroke-miterlimit="10" stroke-linecap="round"/>
<path d="M328.031 122.334H325.222V125.994H328.031V122.334Z" stroke="#939393" stroke-miterlimit="10" stroke-linecap="round"/>
<path d="M332.595 122.334H329.786V125.994H332.595V122.334Z" stroke="#939393" stroke-miterlimit="10" stroke-linecap="round"/>
<path d="M323.466 131.484H320.657V135.145H323.466V131.484Z" stroke="#939393" stroke-miterlimit="10" stroke-linecap="round"/>
<path d="M328.031 131.484H325.222V135.145H328.031V131.484Z" stroke="#939393" stroke-miterlimit="10" stroke-linecap="round"/>
<path d="M293.579 76.5789H290.771V80.2393H293.579V76.5789Z" stroke="#939393" stroke-miterlimit="10" stroke-linecap="round"/>
<path d="M298.144 76.5789H295.335V80.2393H298.144V76.5789Z" stroke="#939393" stroke-miterlimit="10" stroke-linecap="round"/>
<path d="M293.579 85.7297H290.771V89.39H293.579V85.7297Z" stroke="#939393" stroke-miterlimit="10" stroke-linecap="round"/>
<path d="M298.144 85.7297H295.335V89.39H298.144V85.7297Z" stroke="#939393" stroke-miterlimit="10" stroke-linecap="round"/>
<path d="M293.579 94.881H290.771V98.5412H293.579V94.881Z" stroke="#939393" stroke-miterlimit="10" stroke-linecap="round"/>
<path d="M298.144 94.881H295.335V98.5412H298.144V94.881Z" stroke="#939393" stroke-miterlimit="10" stroke-linecap="round"/>
<path d="M293.579 104.032H290.771V107.692H293.579V104.032Z" stroke="#939393" stroke-miterlimit="10" stroke-linecap="round"/>
<path d="M298.144 104.032H295.335V107.692H298.144V104.032Z" stroke="#939393" stroke-miterlimit="10" stroke-linecap="round"/>
<path d="M293.579 113.183H290.771V116.843H293.579V113.183Z" stroke="#939393" stroke-miterlimit="10" stroke-linecap="round"/>
<path d="M298.144 113.183H295.335V116.843H298.144V113.183Z" stroke="#939393" stroke-miterlimit="10" stroke-linecap="round"/>
<path d="M293.579 122.334H290.771V125.994H293.579V122.334Z" stroke="#939393" stroke-miterlimit="10" stroke-linecap="round"/>
<path d="M298.144 122.334H295.335V125.994H298.144V122.334Z" stroke="#939393" stroke-miterlimit="10" stroke-linecap="round"/>
<path d="M293.579 131.484H290.771V135.145H293.579V131.484Z" stroke="#939393" stroke-miterlimit="10" stroke-linecap="round"/>
<path d="M298.144 131.484H295.335V135.145H298.144V131.484Z" stroke="#939393" stroke-miterlimit="10" stroke-linecap="round"/>
<path d="M213.126 85.7297H210.317V89.39H213.126V85.7297Z" stroke="#939393" stroke-miterlimit="10" stroke-linecap="round"/>
<path d="M217.691 85.7297H214.882V89.39H217.691V85.7297Z" stroke="#939393" stroke-miterlimit="10" stroke-linecap="round"/>
<path d="M213.126 94.881H210.317V98.5412H213.126V94.881Z" stroke="#939393" stroke-miterlimit="10" stroke-linecap="round"/>
<path d="M217.691 94.881H214.882V98.5412H217.691V94.881Z" stroke="#939393" stroke-miterlimit="10" stroke-linecap="round"/>
<path d="M213.126 104.032H210.317V107.692H213.126V104.032Z" stroke="#939393" stroke-miterlimit="10" stroke-linecap="round"/>
<path d="M217.691 104.032H214.882V107.692H217.691V104.032Z" stroke="#939393" stroke-miterlimit="10" stroke-linecap="round"/>
<path d="M213.126 113.183H210.317V116.843H213.126V113.183Z" stroke="#939393" stroke-miterlimit="10" stroke-linecap="round"/>
<path d="M217.691 113.183H214.882V116.843H217.691V113.183Z" stroke="#939393" stroke-miterlimit="10" stroke-linecap="round"/>
<path d="M213.126 122.334H210.317V125.994H213.126V122.334Z" stroke="#939393" stroke-miterlimit="10" stroke-linecap="round"/>
<path d="M217.691 122.334H214.882V125.994H217.691V122.334Z" stroke="#939393" stroke-miterlimit="10" stroke-linecap="round"/>
<path d="M213.126 131.484H210.317V135.145H213.126V131.484Z" stroke="#939393" stroke-miterlimit="10" stroke-linecap="round"/>
<path d="M217.691 131.484H214.882V135.145H217.691V131.484Z" stroke="#939393" stroke-miterlimit="10" stroke-linecap="round"/>
<path d="M223.464 85.7297H220.655V89.39H223.464V85.7297Z" stroke="#939393" stroke-miterlimit="10" stroke-linecap="round"/>
<path d="M228.029 85.7297H225.22V89.39H228.029V85.7297Z" stroke="#939393" stroke-miterlimit="10" stroke-linecap="round"/>
<path d="M223.464 94.881H220.655V98.5412H223.464V94.881Z" stroke="#939393" stroke-miterlimit="10" stroke-linecap="round"/>
<path d="M228.029 94.881H225.22V98.5412H228.029V94.881Z" stroke="#939393" stroke-miterlimit="10" stroke-linecap="round"/>
<path d="M223.464 104.032H220.655V107.692H223.464V104.032Z" stroke="#939393" stroke-miterlimit="10" stroke-linecap="round"/>
<path d="M228.029 104.032H225.22V107.692H228.029V104.032Z" stroke="#939393" stroke-miterlimit="10" stroke-linecap="round"/>
<path d="M223.464 113.183H220.655V116.843H223.464V113.183Z" stroke="#939393" stroke-miterlimit="10" stroke-linecap="round"/>
<path d="M228.029 113.183H225.22V116.843H228.029V113.183Z" stroke="#939393" stroke-miterlimit="10" stroke-linecap="round"/>
<path d="M223.464 122.334H220.655V125.994H223.464V122.334Z" stroke="#939393" stroke-miterlimit="10" stroke-linecap="round"/>
<path d="M228.029 122.334H225.22V125.994H228.029V122.334Z" stroke="#939393" stroke-miterlimit="10" stroke-linecap="round"/>
<path d="M223.464 131.484H220.655V135.145H223.464V131.484Z" stroke="#939393" stroke-miterlimit="10" stroke-linecap="round"/>
<path d="M228.029 131.484H225.22V135.145H228.029V131.484Z" stroke="#939393" stroke-miterlimit="10" stroke-linecap="round"/>
<path d="M151.708 58.277H148.899V61.9373H151.708V58.277Z" stroke="#939393" stroke-miterlimit="10" stroke-linecap="round"/>
<path d="M156.273 58.277H153.464V61.9373H156.273V58.277Z" stroke="#939393" stroke-miterlimit="10" stroke-linecap="round"/>
<path d="M151.708 67.4282H148.899V71.0885H151.708V67.4282Z" stroke="#939393" stroke-miterlimit="10" stroke-linecap="round"/>
<path d="M156.273 67.4282H153.464V71.0885H156.273V67.4282Z" stroke="#939393" stroke-miterlimit="10" stroke-linecap="round"/>
<path d="M151.708 76.5789H148.899V80.2393H151.708V76.5789Z" stroke="#939393" stroke-miterlimit="10" stroke-linecap="round"/>
<path d="M156.273 76.5789H153.464V80.2393H156.273V76.5789Z" stroke="#939393" stroke-miterlimit="10" stroke-linecap="round"/>
<path d="M151.708 85.7297H148.899V89.39H151.708V85.7297Z" stroke="#939393" stroke-miterlimit="10" stroke-linecap="round"/>
<path d="M156.273 85.7297H153.464V89.39H156.273V85.7297Z" stroke="#939393" stroke-miterlimit="10" stroke-linecap="round"/>
<path d="M151.708 94.881H148.899V98.5412H151.708V94.881Z" stroke="#939393" stroke-miterlimit="10" stroke-linecap="round"/>
<path d="M156.273 94.881H153.464V98.5412H156.273V94.881Z" stroke="#939393" stroke-miterlimit="10" stroke-linecap="round"/>
<path d="M151.708 104.032H148.899V107.692H151.708V104.032Z" stroke="#939393" stroke-miterlimit="10" stroke-linecap="round"/>
<path d="M156.273 104.032H153.464V107.692H156.273V104.032Z" stroke="#939393" stroke-miterlimit="10" stroke-linecap="round"/>
<path d="M151.708 113.183H148.899V116.843H151.708V113.183Z" stroke="#939393" stroke-miterlimit="10" stroke-linecap="round"/>
<path d="M156.273 113.183H153.464V116.843H156.273V113.183Z" stroke="#939393" stroke-miterlimit="10" stroke-linecap="round"/>
<path d="M151.708 122.334H148.899V125.994H151.708V122.334Z" stroke="#939393" stroke-miterlimit="10" stroke-linecap="round"/>
<path d="M156.273 122.334H153.464V125.994H156.273V122.334Z" stroke="#939393" stroke-miterlimit="10" stroke-linecap="round"/>
<path d="M151.708 131.484H148.899V135.145H151.708V131.484Z" stroke="#939393" stroke-miterlimit="10" stroke-linecap="round"/>
<path d="M156.273 131.484H153.464V135.145H156.273V131.484Z" stroke="#939393" stroke-miterlimit="10" stroke-linecap="round"/>
<path d="M332.595 131.484H329.786V135.145H332.595V131.484Z" stroke="#939393" stroke-miterlimit="10" stroke-linecap="round"/>
<path d="M322.772 190.829C322.772 204.8 314.928 205.854 305.251 205.854C295.575 205.854 287.73 204.8 287.73 190.829C287.73 176.859 295.575 147.656 305.252 147.656C314.928 147.656 322.772 176.859 322.772 190.829Z" fill="#C02120"/>
<path opacity="0.58" d="M322.772 190.829C322.772 204.8 314.928 205.854 305.251 205.854C295.575 205.854 287.73 204.8 287.73 190.829C287.73 176.859 295.575 147.656 305.252 147.656C314.928 147.656 322.772 176.859 322.772 190.829Z" fill="white"/>
<path d="M311.175 197.168L308.277 197.367L315.826 192.285L310.435 195.007L311.175 192.88L308.711 195.877L305.819 197.336L305.59 187.304L307.121 183.592L305.553 185.679L305.42 179.863L310.221 173.469L305.386 178.412L305.094 165.609L304.835 173.804L301.755 170.373L304.785 175.378L304.375 188.358L301.693 186.607L299.25 182.282L300.23 185.651L295.435 182.52L304.318 190.172L302.972 232.775H306.631L305.858 198.996L306.702 198.428L311.175 197.168Z" fill="#263238"/>
<path d="M365.93 165.326C365.93 187.79 353.317 189.486 337.756 189.486C322.196 189.486 309.582 187.79 309.582 165.326C309.582 142.861 322.196 95.9019 337.756 95.9019C353.317 95.9019 365.93 142.861 365.93 165.326Z" fill="#C02120"/>
<path opacity="0.31" d="M365.93 165.326C365.93 187.79 353.317 189.486 337.756 189.486C322.196 189.486 309.582 187.79 309.582 165.326C309.582 142.861 322.196 95.9019 337.756 95.9019C353.317 95.9019 365.93 142.861 365.93 165.326Z" fill="white"/>
<path d="M347.283 175.518L342.623 175.839L354.761 167.667L346.092 172.043L347.283 168.624L343.32 173.443L338.671 175.79L338.302 159.658L340.763 153.688L338.242 157.045L338.028 147.691L345.749 137.411L337.975 145.36L337.504 124.772L337.088 137.949L332.135 132.432L337.007 140.48L336.349 161.352L332.036 158.536L328.108 151.581L329.683 156.999L321.972 151.964L336.256 164.268L334.093 232.775H339.975L338.732 178.459L340.091 177.544L347.283 175.518Z" fill="#263238"/>
<path d="M55.9766 190.829C55.9766 204.8 63.8211 205.854 73.4977 205.854C83.1743 205.854 91.0189 204.8 91.0189 190.829C91.0189 176.859 83.1743 147.656 73.4977 147.656C63.8211 147.656 55.9766 176.859 55.9766 190.829Z" fill="#C02120"/>
<path opacity="0.58" d="M55.9766 190.829C55.9766 204.8 63.8211 205.854 73.4977 205.854C83.1743 205.854 91.0189 204.8 91.0189 190.829C91.0189 176.859 83.1743 147.656 73.4977 147.656C63.8211 147.656 55.9766 176.859 55.9766 190.829Z" fill="white"/>
<path d="M67.5734 197.168L70.4717 197.367L62.9229 192.285L68.3139 195.007L67.5734 192.88L70.0383 195.877L72.9291 197.336L73.159 187.304L71.6281 183.592L73.1959 185.679L73.329 179.863L68.5279 173.469L73.3624 178.412L73.6552 165.609L73.914 173.804L76.9942 170.373L73.9638 175.378L74.3737 188.358L77.0551 186.607L79.4985 182.282L78.5187 185.651L83.3143 182.52L74.4311 190.172L75.776 232.775H72.1183L72.8912 198.996L72.0465 198.428L67.5734 197.168Z" fill="#263238"/>
<path d="M13.0068 165.551C13.0068 187.941 25.5787 189.631 41.0868 189.631C56.5948 189.631 69.1667 187.94 69.1667 165.551C69.1667 143.162 56.5948 96.3595 41.0868 96.3595C25.5787 96.3595 13.0068 143.162 13.0068 165.551Z" fill="#C02120"/>
<path opacity="0.31" d="M13.0068 165.551C13.0068 187.941 25.5787 189.631 41.0868 189.631C56.5948 189.631 69.1667 187.94 69.1667 165.551C69.1667 143.162 56.5948 96.3595 41.0868 96.3595C25.5787 96.3595 13.0068 143.162 13.0068 165.551Z" fill="white"/>
<path d="M31.5917 175.709L36.2363 176.029L24.1387 167.884L32.7786 172.246L31.5917 168.839L35.5422 173.641L40.1753 175.98L40.5428 159.902L38.0899 153.952L40.6026 157.298L40.8161 147.976L33.1212 137.729L40.8689 145.652L41.3387 125.133L41.7531 138.266L46.6899 132.767L41.8329 140.789L42.4896 161.591L46.7876 158.784L50.7031 151.853L49.1333 157.253L56.8183 152.234L42.5819 164.497L44.7376 232.775H38.8758L40.1145 178.64L38.7606 177.729L31.5917 175.709Z" fill="#263238"/>
<path d="M196.907 111.978H181.546C180.446 111.978 179.555 111.087 179.555 109.989V106.193C179.555 105.094 180.446 104.204 181.546 104.204H196.907C198.007 104.204 198.898 105.094 198.898 106.193V109.989C198.898 111.087 198.007 111.978 196.907 111.978Z" fill="#263238" stroke="#263238" stroke-miterlimit="10" stroke-linecap="round" stroke-linejoin="round"/>
<path d="M189.462 100.434H187.575V106.324H189.462V100.434Z" fill="#263238" stroke="#263238" stroke-miterlimit="10" stroke-linecap="round" stroke-linejoin="round"/>
<path d="M255.718 142.664L248.953 137.424L239.526 102.632L223.836 100.7L230.623 125.877H151.28L158.068 100.7L142.378 102.632L132.813 137.931L125.669 142.664H255.718ZM225.771 102.632L237.592 103.491L245.15 134.478L234.047 125.877H233.451L225.771 102.632ZM144.313 103.491L156.133 102.632L147.857 127.682L148.14 127.779L136.509 135.484L144.313 103.491Z" fill="#263238" stroke="#263238" stroke-miterlimit="10" stroke-linecap="round" stroke-linejoin="round"/>
<path d="M175.089 144.253L173.924 127.682C173.648 123.746 170.37 120.694 166.419 120.694H151.172C147.221 120.694 143.944 123.746 143.667 127.682L142.502 144.253H175.089Z" fill="#787878" stroke="#263238" stroke-miterlimit="10" stroke-linecap="round" stroke-linejoin="round"/>
<path d="M235.212 144.253L234.047 127.682C233.77 123.746 230.492 120.694 226.542 120.694H211.295C207.344 120.694 204.067 123.746 203.79 127.682L202.625 144.253H235.212Z" fill="#787878" stroke="#263238" stroke-miterlimit="10" stroke-linecap="round" stroke-linejoin="round"/>
<path d="M154.94 108.455C154.94 108.455 152.016 106.37 150.206 107.343C148.395 108.316 144.636 118.885 144.079 121.249C143.522 123.613 147.003 125.559 149.37 126.254C151.737 126.95 156.471 125.42 157.585 124.308C158.699 123.195 154.94 108.455 154.94 108.455Z" fill="#263238" stroke="#263238" stroke-miterlimit="10"/>
<path d="M174.693 144.695C174.514 144.134 174.409 143.786 174.409 143.786C174.409 143.786 172.381 132.936 171.873 132.068C171.366 131.2 165.065 128.378 165.065 128.378L154.127 127.8C154.127 127.8 145.942 131.778 145.87 132.285C145.832 132.554 144.266 138.848 142.805 144.695H174.693V144.695Z" fill="#B2B2B2" stroke="#263238" stroke-miterlimit="10"/>
<path d="M149.028 136.573C149.67 138.43 150.104 139.733 150.37 141.415" stroke="#263238" stroke-miterlimit="10"/>
<path d="M170.483 137.327C170.133 138.52 169.253 140.103 169.516 141.38" stroke="#263238" stroke-miterlimit="10"/>
<path d="M160.214 104.733C160.214 104.733 153.703 106.539 151.895 110.03C150.087 113.522 149.966 114.304 150.991 115.99C152.016 117.675 154.548 120.685 156.898 121.889C159.249 123.093 166.724 121.347 166.724 121.347C166.724 121.347 169.014 120.324 169.738 118.518C170.461 116.712 172.088 114.184 171.003 111.475C169.918 108.767 165.096 105.034 163.589 104.613C162.082 104.191 160.214 104.733 160.214 104.733Z" fill="#263238" stroke="#263238" stroke-miterlimit="10"/>
<path d="M164.952 109.3C164.952 109.3 161.706 111.296 160.041 112.459C158.375 113.623 156.378 114.289 156.378 114.289C156.378 114.289 154.879 114.954 155.212 116.699C155.546 118.445 156.176 124.477 156.176 124.477L155.046 126.925L159.874 132.246L163.704 127.258L164.12 124.681C164.12 124.681 167.616 122.519 167.7 122.02C167.783 121.521 168.782 114.206 168.698 113.457C168.615 112.709 164.952 109.3 164.952 109.3Z" fill="white" stroke="#263238" stroke-miterlimit="10"/>
<path d="M165.518 114.424C165.518 114.424 165.337 116.049 165.337 116.29C165.337 116.531 166.783 117.795 166.241 118.276C165.698 118.758 164.613 119.059 164.613 119.059" stroke="#263238" stroke-miterlimit="10" stroke-linecap="round" stroke-linejoin="round"/>
<path d="M164.795 120.564C164.795 120.564 164.192 121.227 162.866 119.842" stroke="#263238" stroke-miterlimit="10" stroke-linecap="round" stroke-linejoin="round"/>
<path d="M164.119 124.681C164.119 124.681 162.746 124.537 162.203 124.176C161.661 123.815 160.094 122.611 160.094 122.611L163.168 127.908L163.703 127.258L164.119 124.681Z" fill="#263238" stroke="#263238" stroke-miterlimit="10" stroke-linecap="round" stroke-linejoin="round"/>
<path d="M157.019 115.869C157.019 115.869 155.874 112.437 154.548 114.364C153.222 116.29 155.331 118.999 156.356 118.938" fill="white"/>
<path d="M157.019 115.869C157.019 115.869 155.874 112.437 154.548 114.364C153.222 116.29 155.331 118.999 156.356 118.938" stroke="#263238" stroke-miterlimit="10"/>
<path d="M162.535 116.411C162.817 116.411 163.047 116.087 163.047 115.688C163.047 115.289 162.817 114.966 162.535 114.966C162.252 114.966 162.022 115.289 162.022 115.688C162.022 116.087 162.252 116.411 162.535 116.411Z" fill="#263238"/>
<path d="M167.055 116.411C167.338 116.411 167.567 116.087 167.567 115.688C167.567 115.289 167.338 114.966 167.055 114.966C166.772 114.966 166.543 115.289 166.543 115.688C166.543 116.087 166.772 116.411 167.055 116.411Z" fill="#263238"/>
<path d="M161.178 114.123C161.178 114.123 162.263 113.04 163.709 113.882" stroke="#263238" stroke-miterlimit="10" stroke-linecap="round" stroke-linejoin="round"/>
<path d="M166.061 113.762C166.061 113.762 167.688 113.1 168.05 114.364" stroke="#263238" stroke-miterlimit="10" stroke-linecap="round" stroke-linejoin="round"/>
<path d="M155.03 125.079L159.25 130.436L156.356 133.567L153.102 127.728L155.03 125.079Z" fill="white" stroke="#263238" stroke-miterlimit="10"/>
<path d="M141.465 104.425L161.104 144.044H155.822L139.999 105.635" fill="#263238"/>
<path d="M141.465 104.425L161.104 144.044H155.822L139.999 105.635" stroke="#263238" stroke-miterlimit="10" stroke-linecap="round" stroke-linejoin="round"/>
<path d="M159.25 130.436L159.874 132.246L158.406 131.52L159.25 130.436Z" fill="white" stroke="#263238" stroke-miterlimit="10"/>
<path d="M160.757 129.533L162.806 133.567L165.94 128.269L163.831 126.584L160.757 129.533Z" fill="white" stroke="#263238" stroke-miterlimit="10"/>
<path d="M160.757 129.533L159.874 132.246L161.36 130.797L160.757 129.533Z" fill="white" stroke="#263238" stroke-miterlimit="10"/>
<path d="M245.604 147.838C245.948 147.077 247.69 143.103 247.064 142.052C243.515 136.092 242.473 140.041 241.204 137.059C239.072 132.049 237.268 128.559 236.502 128.035C235.021 127.023 225.276 125.155 225.276 125.155L213.349 124.844C213.349 124.844 203.058 129.048 202.357 129.982C202.056 130.383 199.843 133.022 198.303 136.737C198.147 137.115 194.59 139.952 194.432 140.334C192.754 144.402 194.312 147.223 194.708 147.839L245.604 147.838Z" fill="white" stroke="#263238" stroke-miterlimit="10" stroke-linecap="round" stroke-linejoin="round"/>
<path d="M205.995 134.213C206.113 138.322 206.113 142.247 206.285 146.299" stroke="#263238" stroke-miterlimit="10" stroke-linecap="round" stroke-linejoin="round"/>
<path d="M205.937 131.742L205.966 132.974" stroke="#263238" stroke-miterlimit="10" stroke-linecap="round" stroke-linejoin="round"/>
<path d="M233.371 133.815C233.133 136.974 232.896 140.134 232.658 143.293C232.582 144.3 232.506 145.308 232.431 146.315" stroke="#263238" stroke-miterlimit="10" stroke-linecap="round" stroke-linejoin="round"/>
<path d="M233.544 131.511L233.481 132.348" stroke="#263238" stroke-miterlimit="10" stroke-linecap="round" stroke-linejoin="round"/>
<path d="M216.592 138.311C216.711 140.501 216.474 144.932 216.287 147.838H224.254C223.873 144.381 223.257 138.79 223.13 137.565C222.943 135.761 220.514 130.599 220.514 130.599L222.071 128.547L219.269 125.624L217.463 128.423L218.896 130.786C218.896 130.786 216.405 134.891 216.592 138.311Z" fill="#C02120" stroke="#263238" stroke-miterlimit="10" stroke-linecap="round" stroke-linejoin="round"/>
<path d="M214.91 120.277L214.412 124.008L219.705 126.931L224.438 124.07L224.251 121.334L214.91 120.277Z" fill="white" stroke="#263238" stroke-miterlimit="10" stroke-linecap="round" stroke-linejoin="round"/>
<path d="M214.412 124.008L216.19 124.99L219.2 123.733L215.846 120.383L214.91 120.277L214.412 124.008Z" fill="#263238" stroke="#263238" stroke-miterlimit="10" stroke-linecap="round" stroke-linejoin="round"/>
<path d="M214.54 105.52C214.54 105.52 212.78 106.775 212.654 108.596C212.528 110.417 213.471 118.83 214.477 120.713C215.483 122.597 216.677 124.104 219.129 124.543C221.581 124.982 224.473 122.534 224.787 121.403C225.101 120.273 226.296 114.434 226.296 112.237C226.296 110.04 226.547 107.529 224.536 105.708C222.524 103.887 219.255 103.511 217.683 103.825C216.112 104.139 214.54 105.52 214.54 105.52Z" fill="white" stroke="#263238" stroke-miterlimit="10" stroke-linecap="round" stroke-linejoin="round"/>
<path d="M224.536 105.708C222.524 103.888 219.255 103.511 217.683 103.825C216.112 104.139 214.54 105.52 214.54 105.52C214.54 105.52 212.78 106.776 212.654 108.596C212.593 109.483 212.786 111.934 213.115 114.433C213.243 114.455 213.408 114.395 213.408 113.933C213.408 113.179 212.968 112.74 213.534 112.112C214.1 111.484 214.98 110.605 215.483 109.789C215.985 108.973 215.86 107.717 215.86 107.717C215.86 107.717 216.991 108.659 219.255 108.91C221.518 109.161 223.97 109.161 224.347 109.224C224.724 109.287 224.221 109.663 224.787 110.417C225.353 111.17 225.604 111.547 225.667 111.924C225.721 112.248 226.009 114.065 226.087 114.56C226.214 113.637 226.296 112.812 226.296 112.237C226.296 110.04 226.548 107.529 224.536 105.708Z" fill="#263238" stroke="#263238" stroke-miterlimit="10" stroke-linecap="round" stroke-linejoin="round"/>
<path d="M218.375 117.323C218.375 117.323 219.444 118.014 220.135 117.889C220.827 117.763 221.519 117.261 221.519 117.261" stroke="#263238" stroke-miterlimit="10" stroke-linecap="round" stroke-linejoin="round"/>
<path d="M221.581 112.614C221.581 112.614 223.027 111.547 224.473 112.74" stroke="#263238" stroke-miterlimit="10" stroke-linecap="round" stroke-linejoin="round"/>
<path d="M218.564 112.74C218.564 112.74 216.866 111.61 215.672 112.991" stroke="#263238" stroke-miterlimit="10" stroke-linecap="round" stroke-linejoin="round"/>
<path d="M217.62 113.933C217.62 114.245 217.465 114.498 217.274 114.498C217.083 114.498 216.929 114.245 216.929 113.933C216.929 113.621 217.083 113.368 217.274 113.368C217.465 113.368 217.62 113.621 217.62 113.933Z" fill="#263238"/>
<path d="M222.87 113.933C222.87 114.245 222.715 114.498 222.524 114.498C222.333 114.498 222.179 114.245 222.179 113.933C222.179 113.621 222.334 113.368 222.524 113.368C222.715 113.368 222.87 113.621 222.87 113.933Z" fill="#263238"/>
<path d="M217.243 119.395C217.243 119.395 219.695 120.462 222.147 119.332" stroke="#263238" stroke-miterlimit="10" stroke-linecap="round" stroke-linejoin="round"/>
<path d="M213.031 113.305C213.031 113.305 212.025 112.489 211.648 113.933C211.271 115.377 213.597 117.261 213.597 117.261L213.031 113.305Z" fill="white" stroke="#263238" stroke-miterlimit="10" stroke-linecap="round" stroke-linejoin="round"/>
<path d="M226.234 113.556C226.234 113.556 226.8 112.614 227.302 113.807C227.805 115 225.542 117.637 225.542 117.637L226.234 113.556Z" fill="white" stroke="#263238" stroke-miterlimit="10" stroke-linecap="round" stroke-linejoin="round"/>
<path d="M219.982 118.436C219.982 118.436 216.992 118.014 216.363 119.018C215.819 119.887 216.123 122.302 216.621 123.468C217.287 123.981 218.096 124.358 219.129 124.543C220.348 124.761 221.675 124.266 222.74 123.574C222.989 123.222 223.345 122.328 223.216 120.147C223.11 118.384 222.347 118.212 219.982 118.436ZM222.232 122.513C222.232 122.513 221.256 123.262 219.851 123.218C219.343 123.202 217.716 123.173 217.151 122.601C216.587 122.029 216.135 119.873 216.699 119.169C217.264 118.465 219.949 118.761 219.949 118.761C222.073 118.604 222.758 118.724 222.853 119.961C223.026 122.235 222.232 122.513 222.232 122.513Z" fill="#263238" stroke="#263238" stroke-miterlimit="10" stroke-linecap="round" stroke-linejoin="round"/>
<path d="M220.684 122.193C220.684 122.447 220.32 123.218 219.871 123.218C219.423 123.218 219.059 122.447 219.059 122.193C219.059 121.938 219.423 121.732 219.871 121.732C220.321 121.732 220.684 121.938 220.684 122.193Z" fill="#263238" stroke="#263238" stroke-miterlimit="10" stroke-linecap="round" stroke-linejoin="round"/>
<path d="M219.705 126.931L215.16 131.16L212.731 124.754L214.288 123.51L219.705 126.931Z" fill="white" stroke="#263238" stroke-miterlimit="10" stroke-linecap="round" stroke-linejoin="round"/>
<path d="M219.705 126.931L223.379 131.719L225.808 125.376L224.438 124.07L219.705 126.931Z" fill="white" stroke="#263238" stroke-miterlimit="10" stroke-linecap="round" stroke-linejoin="round"/>
<path d="M239.492 104.425L210.448 144.044H215.73L240.958 105.635" fill="#263238"/>
<path d="M239.492 104.425L210.448 144.044H215.73L240.958 105.635" stroke="#263238" stroke-miterlimit="10" stroke-linecap="round" stroke-linejoin="round"/>
<path d="M192.833 147.838H200.169C200.874 147.019 201.552 146.089 201.732 145.864C202.044 145.474 202.902 144.073 202.356 142.127C201.811 140.181 200.018 139.09 200.018 139.09L198.069 139.48C198.069 139.48 196.432 138.935 195.184 139.48C193.937 140.025 192.3 141.893 191.676 144.073C191.177 145.817 191.975 147.111 192.833 147.838Z" fill="white" stroke="#263238" stroke-miterlimit="10" stroke-linecap="round" stroke-linejoin="round"/>
<path d="M197.495 139.85C196.13 141.719 195.171 144.161 196.613 146.257" stroke="#263238" stroke-miterlimit="10" stroke-linecap="round" stroke-linejoin="round"/>
<path d="M208.624 137.166C208.624 137.166 209.914 136.844 210.344 137.112C210.774 137.381 211.258 138.294 211.473 138.777C211.688 139.26 211.366 139.69 210.667 139.797C209.968 139.904 209.054 138.991 209.054 138.991L208.624 137.166Z" fill="white" stroke="#263238" stroke-miterlimit="10" stroke-linecap="round" stroke-linejoin="round"/>
<path d="M235.295 140.077L234.253 138.74L223.467 145.501H215.73L205.019 139.409L204.126 140.375L209.394 147.838H229.25L235.295 140.077Z" fill="#263238" stroke="#263238" stroke-miterlimit="10" stroke-linecap="round" stroke-linejoin="round"/>
<path d="M203.594 147.838C204.069 139.388 211.074 132.68 219.654 132.68C228.234 132.68 235.239 139.388 235.714 147.838H238.281C237.803 137.972 229.651 130.118 219.654 130.118C209.656 130.118 201.505 137.972 201.026 147.838H203.594Z" fill="#263238" stroke="#263238" stroke-miterlimit="10" stroke-linecap="round" stroke-linejoin="round"/>
<path d="M201.582 135.878C201.582 135.878 198.302 140.602 198.195 142.267C198.087 143.931 198.84 145.649 200.453 145.917C202.065 146.186 202.334 145.166 202.334 145.166C202.334 145.166 205.829 145.917 205.99 145.917C206.151 145.917 206.527 145.757 206.635 145.381C206.743 145.005 207.012 144.522 207.012 144.522C207.012 144.522 207.495 144.199 207.818 143.609C208.141 143.018 208.248 142.75 208.248 142.75C208.248 142.75 208.839 141.891 208.947 141.515C209.055 141.139 209.055 140.441 209.055 140.441C209.055 140.441 209.592 139.743 209.538 138.991C209.484 138.24 208.732 136.897 207.173 136.038C205.614 135.179 203.409 134.803 202.657 134.911C201.904 135.019 201.582 135.878 201.582 135.878Z" fill="white" stroke="#263238" stroke-miterlimit="10" stroke-linecap="round" stroke-linejoin="round"/>
<path d="M204.636 137.907L209.054 140.441" stroke="#263238" stroke-miterlimit="10" stroke-linecap="round" stroke-linejoin="round"/>
<path d="M203.625 137.327L204.191 137.652" stroke="#263238" stroke-miterlimit="10" stroke-linecap="round" stroke-linejoin="round"/>
<path d="M202.334 139.689L208.248 142.75" stroke="#263238" stroke-miterlimit="10" stroke-linecap="round" stroke-linejoin="round"/>
<path d="M203.139 142.807L207.011 144.522" stroke="#263238" stroke-miterlimit="10" stroke-linecap="round" stroke-linejoin="round"/>
<path d="M201.797 142.213L202.565 142.553" stroke="#263238" stroke-miterlimit="10" stroke-linecap="round" stroke-linejoin="round"/>
<path d="M239.469 147.838H246.805C247.663 147.111 248.461 145.817 247.962 144.073C247.338 141.893 245.701 140.025 244.454 139.479C243.207 138.935 241.57 139.479 241.57 139.479L239.621 139.09C239.621 139.09 237.828 140.18 237.282 142.126C236.736 144.072 237.594 145.474 237.906 145.863C238.086 146.089 238.764 147.02 239.469 147.838Z" fill="white" stroke="#263238" stroke-miterlimit="10" stroke-linecap="round" stroke-linejoin="round"/>
<path d="M243.489 145.373C243.376 145.672 243.223 145.968 243.024 146.258" stroke="#263238" stroke-miterlimit="10" stroke-linecap="round" stroke-linejoin="round"/>
<path d="M242.142 139.85C243.142 141.22 243.925 142.899 243.703 144.524" stroke="#263238" stroke-miterlimit="10" stroke-linecap="round" stroke-linejoin="round"/>
<path d="M231.013 137.166C231.013 137.166 229.723 136.844 229.292 137.112C228.862 137.381 228.378 138.294 228.163 138.777C227.949 139.26 228.271 139.69 228.97 139.797C229.668 139.904 230.582 138.991 230.582 138.991L231.013 137.166Z" fill="white" stroke="#263238" stroke-miterlimit="10" stroke-linecap="round" stroke-linejoin="round"/>
<path d="M238.056 135.878C238.056 135.878 241.335 140.602 241.443 142.267C241.551 143.931 240.798 145.649 239.185 145.917C237.573 146.186 237.304 145.166 237.304 145.166C237.304 145.166 233.809 145.917 233.648 145.917C233.487 145.917 233.11 145.757 233.003 145.381C232.895 145.005 232.626 144.522 232.626 144.522C232.626 144.522 232.143 144.199 231.82 143.609C231.497 143.018 231.39 142.75 231.39 142.75C231.39 142.75 230.799 141.891 230.691 141.515C230.583 141.139 230.583 140.441 230.583 140.441C230.583 140.441 230.046 139.743 230.099 138.991C230.153 138.24 230.906 136.897 232.465 136.038C234.025 135.179 236.229 134.803 236.981 134.911C237.734 135.019 238.056 135.878 238.056 135.878Z" fill="white" stroke="#263238" stroke-miterlimit="10" stroke-linecap="round" stroke-linejoin="round"/>
<path d="M235.002 137.907L230.584 140.441" stroke="#263238" stroke-miterlimit="10" stroke-linecap="round" stroke-linejoin="round"/>
<path d="M236.013 137.327L235.446 137.652" stroke="#263238" stroke-miterlimit="10" stroke-linecap="round" stroke-linejoin="round"/>
<path d="M237.303 139.689L231.39 142.75" stroke="#263238" stroke-miterlimit="10" stroke-linecap="round" stroke-linejoin="round"/>
<path d="M236.499 142.807L232.626 144.522" stroke="#263238" stroke-miterlimit="10" stroke-linecap="round" stroke-linejoin="round"/>
<path d="M237.842 142.213L237.073 142.553" stroke="#263238" stroke-miterlimit="10" stroke-linecap="round" stroke-linejoin="round"/>
<path d="M253.093 180.554V212.011H129.964V180.554H106.818V226.524C106.818 230.09 109.713 232.981 113.284 232.981H123.499C127.07 232.981 129.964 230.09 129.964 226.524V224.402H141.179L146.429 221.066H236.151L242.832 224.879H253.093V226.524C253.093 230.09 255.988 232.981 259.558 232.981H269.774C273.345 232.981 276.239 230.09 276.239 226.524V180.554H253.093Z" fill="#263238" stroke="#263238" stroke-miterlimit="10" stroke-linecap="round" stroke-linejoin="round"/>
<path d="M271.467 157.915C270.609 156.202 264.355 149.676 263.097 148.373C262.95 148.22 262.828 148.051 262.729 147.864C261.198 144.947 248.212 111.527 245.935 107.285C241.756 99.5034 238.403 100.675 233.942 100.11C233.81 100.094 233.68 100.132 233.548 100.125L199.666 98.4143C194.086 98.1324 188.495 98.1309 182.915 98.4098C173.745 98.8679 164.574 99.3176 155.404 99.7848C147.751 100.175 140.374 99.6797 136.169 107.285C133.84 111.498 120.906 144.932 119.375 147.862C119.276 148.05 119.153 148.221 119.005 148.375C117.743 149.683 111.494 156.203 110.637 157.916C109.682 159.822 105.864 166.971 105.864 168.401C105.864 169.635 106.752 190.02 110.672 205.999C111.841 210.762 115.454 214.577 120.178 215.912C120.514 216.007 120.765 216.061 120.898 216.061H150.622C151.424 216.061 152.166 215.634 152.568 214.941L159.6 202.811C159.739 202.57 159.919 202.361 160.135 202.187C161.242 201.296 164.981 198.665 170.531 198.665C175.413 198.665 184.875 198.665 189.62 198.665C191.37 198.665 192.484 198.665 192.484 198.665C197.229 198.665 206.692 198.665 211.574 198.665C217.123 198.665 220.862 201.296 221.969 202.187C222.185 202.361 222.365 202.571 222.504 202.811L229.537 214.941C229.939 215.634 230.68 216.061 231.482 216.061H261.207C261.339 216.061 261.59 216.007 261.926 215.912C266.65 214.578 270.264 210.762 271.432 205.999C275.353 190.02 276.24 169.634 276.24 168.401C276.24 166.971 272.421 159.822 271.467 157.915ZM125.669 142.664C131.635 130.987 142.85 104.664 142.85 104.664C197.495 99.1827 239.492 104.425 239.492 104.425L255.718 142.664C218.731 139.089 125.669 142.664 125.669 142.664Z" fill="#C02120" stroke="#263238" stroke-miterlimit="10" stroke-linecap="round" stroke-linejoin="round"/>
<path d="M151.917 216.061L150.247 219.874H231.379L230.185 216.061L222.311 202.478C222.311 202.478 219.209 198.903 211.573 198.665C203.937 198.427 170.53 198.665 170.53 198.665C170.53 198.665 164.804 198.189 159.793 202.478L151.917 216.061Z" fill="#787878" stroke="#263238" stroke-miterlimit="10" stroke-linecap="round" stroke-linejoin="round"/>
<path d="M158.838 170.784C158.838 170.784 165.281 182.223 167.19 184.129C169.098 186.035 171.246 186.035 173.871 186.274C176.496 186.512 212.528 186.274 212.528 186.274C212.528 186.274 215.391 185.797 216.823 183.652C218.255 181.508 223.027 170.784 223.027 170.784H158.838Z" fill="#263238" stroke="#263238" stroke-miterlimit="10" stroke-linecap="round" stroke-linejoin="round"/>
<path d="M165.229 172.337C165.229 172.337 170.389 181.497 171.918 183.024C173.447 184.551 175.166 184.551 177.268 184.742C179.37 184.932 208.226 184.742 208.226 184.742C208.226 184.742 210.519 184.36 211.665 182.642C212.812 180.925 216.634 172.337 216.634 172.337L165.229 172.337Z" fill="#787878" stroke="#263238" stroke-miterlimit="10" stroke-linecap="round" stroke-linejoin="round"/>
<path d="M217.852 212.01L216.424 208.072C215.521 205.582 213.131 203.943 210.48 203.995L171.723 204.384C168.988 204.438 166.613 206.279 165.88 208.911L164.915 212.01H217.852V212.01Z" fill="#263238" stroke="#263238" stroke-miterlimit="10" stroke-linecap="round" stroke-linejoin="round"/>
<path d="M164.321 213.917L163.133 217.73H219.925L218.543 213.917H164.321Z" fill="#263238" stroke="#263238" stroke-miterlimit="10" stroke-linecap="round" stroke-linejoin="round"/>
<path d="M262.876 148.145C262.876 148.145 264.069 138.851 266.217 138.851C268.364 138.851 277.909 141.473 278.148 143.379C278.387 145.286 276.239 147.43 274.33 147.907C272.421 148.384 268.364 148.86 268.364 148.86L267.41 152.435L262.876 148.145Z" fill="#263238" stroke="#263238" stroke-miterlimit="10" stroke-linecap="round" stroke-linejoin="round"/>
<path d="M119.226 148.145C119.226 148.145 118.033 138.851 115.886 138.851C113.738 138.851 104.194 141.473 103.955 143.379C103.716 145.286 105.864 147.43 107.773 147.907C109.681 148.384 113.738 148.86 113.738 148.86L114.693 152.435L119.226 148.145Z" fill="#263238" stroke="#263238" stroke-miterlimit="10" stroke-linecap="round" stroke-linejoin="round"/>
<path d="M146.907 169.592C146.907 169.592 151.202 174.12 152.634 182.461C152.634 182.461 132.351 181.508 124.476 178.41C116.602 175.311 115.647 175.073 115.409 173.644C115.17 172.214 115.886 161.967 118.988 160.299C122.09 158.63 125.431 159.107 128.533 161.49C131.635 163.873 135.453 167.448 137.601 168.163C139.748 168.877 146.907 169.592 146.907 169.592Z" fill="white" stroke="#263238" stroke-miterlimit="10" stroke-linecap="round" stroke-linejoin="round"/>
<path d="M133.008 170.285C133.008 173.369 130.504 175.87 127.415 175.87C124.326 175.87 121.822 173.369 121.822 170.285C121.822 167.2 124.326 164.699 127.415 164.699C130.504 164.699 133.008 167.2 133.008 170.285Z" fill="white" stroke="#263238" stroke-miterlimit="10" stroke-linecap="round" stroke-linejoin="round"/>
<path d="M142.995 177.266C142.995 178.698 141.832 179.859 140.398 179.859C138.964 179.859 137.802 178.698 137.802 177.266C137.802 175.834 138.964 174.673 140.398 174.673C141.832 174.673 142.995 175.834 142.995 177.266Z" fill="white" stroke="#263238" stroke-miterlimit="10" stroke-linecap="round" stroke-linejoin="round"/>
<path d="M235.87 169.592C235.87 169.592 231.574 174.12 230.143 182.461C230.143 182.461 250.425 181.508 258.3 178.41C266.174 175.311 267.129 175.073 267.368 173.644C267.606 172.214 266.89 161.967 263.788 160.299C260.686 158.63 257.345 159.107 254.243 161.49C251.141 163.873 247.323 167.448 245.175 168.163C243.029 168.877 235.87 169.592 235.87 169.592Z" fill="white" stroke="#263238" stroke-miterlimit="10" stroke-linecap="round" stroke-linejoin="round"/>
<path d="M251.055 170.285C251.055 173.369 253.558 175.87 256.647 175.87C259.736 175.87 262.24 173.369 262.24 170.285C262.24 167.2 259.736 164.699 256.647 164.699C253.558 164.699 251.055 167.2 251.055 170.285Z" fill="white" stroke="#263238" stroke-miterlimit="10" stroke-linecap="round" stroke-linejoin="round"/>
<path d="M241.067 177.266C241.067 178.698 242.23 179.859 243.664 179.859C245.098 179.859 246.26 178.698 246.26 177.266C246.26 175.834 245.098 174.673 243.664 174.673C242.23 174.673 241.067 175.834 241.067 177.266Z" fill="white" stroke="#263238" stroke-miterlimit="10" stroke-linecap="round" stroke-linejoin="round"/>
<path d="M261.445 190.801C261.445 190.801 239.253 195.091 238.299 195.806C237.344 196.52 235.436 200.571 235.436 200.571L239.969 199.38C239.969 199.38 250.469 199.856 254.048 198.188C257.627 196.521 261.445 190.801 261.445 190.801Z" fill="#263238" stroke="#263238" stroke-miterlimit="10" stroke-linecap="round" stroke-linejoin="round"/>
<path d="M122.328 190.801C122.328 190.801 144.52 195.091 145.474 195.806C146.429 196.52 148.338 200.571 148.338 200.571L143.804 199.38C143.804 199.38 133.304 199.856 129.725 198.188C126.146 196.521 122.328 190.801 122.328 190.801Z" fill="#263238" stroke="#263238" stroke-miterlimit="10" stroke-linecap="round" stroke-linejoin="round"/>
<path d="M233.632 173.26L227.706 171.287H223.027" stroke="#263238" stroke-miterlimit="10" stroke-linecap="round" stroke-linejoin="round"/>
<path d="M149.537 172.978L153.488 170.724L158.838 170.784" stroke="#263238" stroke-miterlimit="10" stroke-linecap="round" stroke-linejoin="round"/>
<path d="M250.429 146.608C251.03 146.263 251.639 145.94 252.257 145.642" stroke="#263238" stroke-miterlimit="10" stroke-linecap="round" stroke-linejoin="round"/>
<path d="M224.16 180.437C227.893 172.242 236.429 155.942 248.36 147.897" stroke="#263238" stroke-miterlimit="10" stroke-linecap="round" stroke-linejoin="round"/>
<path d="M222.062 185.379C222.062 185.379 222.356 184.598 222.925 183.249" stroke="#263238" stroke-miterlimit="10" stroke-linecap="round" stroke-linejoin="round"/>
<path d="M133.707 147.893C132.717 147.293 131.692 146.729 130.63 146.205" stroke="#263238" stroke-miterlimit="10" stroke-linecap="round" stroke-linejoin="round"/>
<path d="M157.607 180.618C155.162 173.325 148.795 158.234 135.809 149.255" stroke="#263238" stroke-miterlimit="10" stroke-linecap="round" stroke-linejoin="round"/>
<path d="M158.849 184.815C158.849 184.815 158.673 184.057 158.281 182.743" stroke="#263238" stroke-miterlimit="10" stroke-linecap="round" stroke-linejoin="round"/>
<path d="M123.856 159.451C123.856 159.451 121.316 153.251 121.316 149.587L123.856 159.451Z" fill="white"/>
<path d="M123.856 159.451C123.856 159.451 121.316 153.251 121.316 149.587" stroke="#263238" stroke-miterlimit="10" stroke-linecap="round" stroke-linejoin="round"/>
<path d="M259.594 159.169C259.594 159.169 260.44 156.351 261.004 151.278L259.594 159.169Z" fill="white"/>
<path d="M259.594 159.169C259.594 159.169 260.44 156.351 261.004 151.278" stroke="#263238" stroke-miterlimit="10" stroke-linecap="round" stroke-linejoin="round"/>
<path d="M268.343 185.66L266.649 207.642L235.325 209.051C235.325 209.051 229.964 202.569 229.681 199.751C229.399 196.933 233.35 192.705 234.479 192.423C235.608 192.141 255.361 188.196 255.361 188.196" stroke="#263238" stroke-miterlimit="10" stroke-linecap="round" stroke-linejoin="round"/>
<path d="M115.095 185.66L116.788 207.642L148.111 209.051C148.111 209.051 153.473 202.569 153.755 199.751C154.038 196.933 150.087 192.705 148.958 192.423C147.829 192.141 128.076 188.196 128.076 188.196" stroke="#263238" stroke-miterlimit="10" stroke-linecap="round" stroke-linejoin="round"/>
<path d="M167.461 176.095L190.488 177.934C191.466 178.013 192.45 178.014 193.429 177.938L214.652 176.291" stroke="#263238" stroke-miterlimit="10" stroke-linecap="round" stroke-linejoin="round"/>
<path d="M168.979 178.502L190.488 180.221C191.466 180.299 192.45 180.3 193.429 180.224L213.907 178.636" stroke="#263238" stroke-miterlimit="10" stroke-linecap="round" stroke-linejoin="round"/>
<path d="M170.519 180.911L190.488 182.507C191.467 182.585 192.45 182.586 193.429 182.51L212.872 181.002" stroke="#263238" stroke-miterlimit="10" stroke-linecap="round" stroke-linejoin="round"/>
<path d="M125.669 142.664C125.669 142.664 218.732 139.089 255.718 142.664L239.492 104.425C239.492 104.425 197.494 99.1827 142.85 104.664C142.85 104.664 131.634 130.987 125.669 142.664Z" stroke="#263238" stroke-miterlimit="10" stroke-linecap="round" stroke-linejoin="round"/>
</svg>
